<?xml version="1.0" encoding="utf-8"?>
<!-- Generator: Adobe Illustrator 20.1.0, SVG Export Plug-In . SVG Version: 6.00 Build 0)  -->
<svg version="1.1" id="Слой_1" xmlns="http://www.w3.org/2000/svg" xmlns:xlink="http://www.w3.org/1999/xlink" x="0px" y="0px"
	 viewBox="0 0 800 800" style="enable-background:new 0 0 800 800;" xml:space="preserve">
<g>
	<g>
		<g>
			<g>
				<path d="M52,195.4h64c8.9,0,17.4,0.8,25.3,2.4c7.9,1.6,14.9,4.4,20.8,8.4c5.9,4,10.6,9.3,14.1,16.1c3.5,6.7,5.2,15.2,5.2,25.4
					c0,10.1-1.6,18.5-4.9,25.3c-3.2,6.8-7.7,12.3-13.4,16.3c-5.7,4.1-12.4,6.9-20.2,8.6c-7.8,1.7-16.2,2.6-25.3,2.6H90v67.2H52
					V195.4z M90,268.4h25.3c3.4,0,6.7-0.3,9.9-1c3.2-0.6,6-1.7,8.5-3.3c2.5-1.5,4.5-3.6,6.1-6.3c1.5-2.7,2.3-6,2.3-10.1
					c0-4.4-1-7.9-3-10.6c-2-2.7-4.6-4.7-7.8-6.2c-3.2-1.5-6.7-2.4-10.6-2.8c-3.9-0.4-7.6-0.6-11.2-0.6H90V268.4z"/>
				<path d="M90.5,368.1h-39V194.9H116c8.9,0,17.4,0.8,25.4,2.4c8,1.6,15,4.5,21,8.5c6,4,10.8,9.5,14.3,16.2
					c3.5,6.8,5.3,15.4,5.3,25.7c0,10.1-1.7,18.7-4.9,25.5c-3.3,6.9-7.8,12.4-13.5,16.5c-5.7,4.1-12.6,7-20.4,8.7
					c-7.8,1.7-16.3,2.6-25.4,2.6H90.5V368.1z M52.5,367.1h37V300h28.2c9,0,17.5-0.9,25.2-2.5c7.7-1.7,14.4-4.6,20-8.6
					c5.6-4,10-9.4,13.2-16.1c3.2-6.7,4.8-15.2,4.8-25.1c0-10.1-1.7-18.6-5.2-25.2c-3.4-6.6-8.1-12-13.9-15.9
					c-5.8-3.9-12.8-6.7-20.6-8.3c-7.9-1.6-16.4-2.4-25.2-2.4H52.5V367.1z M115.3,268.9H89.5V227h20c3.5,0,7.3,0.2,11.2,0.6
					c3.9,0.4,7.5,1.4,10.7,2.8c3.2,1.5,5.9,3.6,8,6.4c2.1,2.8,3.1,6.4,3.1,10.9c0,4.1-0.8,7.6-2.4,10.3c-1.6,2.7-3.7,4.9-6.3,6.5
					c-2.6,1.6-5.5,2.7-8.7,3.3C122.1,268.5,118.7,268.9,115.3,268.9z M90.5,267.9h24.8c3.4,0,6.6-0.3,9.8-1c3.1-0.6,5.9-1.7,8.4-3.2
					c2.4-1.5,4.4-3.6,5.9-6.1c1.5-2.6,2.2-5.9,2.2-9.8c0-4.2-1-7.7-2.9-10.3c-2-2.6-4.5-4.6-7.6-6.1c-3.1-1.4-6.6-2.4-10.4-2.8
					c-3.9-0.4-7.6-0.6-11.1-0.6h-19V267.9z"/>
			</g>
			<g>
				<path d="M205.3,195.4H272c8.8,0,17.1,0.9,24.9,2.6c7.9,1.7,14.8,4.5,20.7,8.5c5.9,4,10.6,9.3,14.1,16.1
					c3.5,6.7,5.2,15.1,5.2,25.2c0,12.2-3.2,22.5-9.5,31s-15.6,13.9-27.7,16.2l43.8,72.8H298l-36-68.9h-18.7v68.9h-38V195.4z
					 M243.3,266.7h22.4c3.4,0,7-0.1,10.8-0.4c3.8-0.2,7.3-1,10.3-2.2c3.1-1.2,5.6-3.1,7.7-5.7c2-2.6,3-6.2,3-10.9
					c0-4.4-0.9-7.9-2.7-10.5c-1.8-2.6-4.1-4.6-6.8-6c-2.8-1.4-5.9-2.3-9.5-2.8c-3.6-0.5-7.1-0.7-10.5-0.7h-24.8V266.7z"/>
				<path d="M344.4,368.1h-46.7l-36-68.9h-17.9v68.9h-39V194.9H272c8.8,0,17.2,0.9,25,2.6c7.9,1.7,14.9,4.6,20.9,8.6
					c6,4,10.8,9.5,14.3,16.2c3.5,6.8,5.3,15.3,5.3,25.4c0,12.2-3.2,22.8-9.6,31.3c-6.3,8.4-15.4,13.9-27.3,16.2L344.4,368.1z
					 M298.3,367.1h44.3l-43.7-72.6l0.7-0.1c12-2.2,21.2-7.6,27.4-16c6.2-8.4,9.4-18.7,9.4-30.7c0-9.9-1.7-18.3-5.2-25
					c-3.4-6.6-8.1-12-13.9-15.9c-5.8-3.9-12.7-6.8-20.5-8.4c-7.8-1.7-16.2-2.5-24.8-2.5h-66.2v171.3h37v-68.9h19.5L298.3,367.1z
					 M265.7,267.2h-22.9V227h25.3c3.4,0,7,0.2,10.5,0.7c3.6,0.5,6.8,1.4,9.6,2.8c2.8,1.4,5.2,3.5,7,6.1c1.8,2.7,2.8,6.3,2.8,10.7
					c0,4.8-1.1,8.6-3.1,11.3c-2.1,2.7-4.7,4.6-7.9,5.9c-3.1,1.2-6.6,2-10.5,2.2C272.7,267,269.1,267.2,265.7,267.2z M243.8,266.2
					h21.9c3.4,0,7-0.1,10.8-0.4c3.7-0.2,7.2-1,10.2-2.2c3-1.2,5.5-3,7.5-5.6c1.9-2.5,2.9-6.1,2.9-10.6c0-4.3-0.9-7.7-2.6-10.2
					c-1.7-2.5-4-4.5-6.6-5.8c-2.7-1.3-5.8-2.3-9.3-2.8c-3.5-0.5-7-0.7-10.4-0.7h-24.3V266.2z"/>
			</g>
			<g>
				<path d="M353.7,281.5c0-13.8,2.3-26.3,6.9-37.5c4.6-11.2,11.1-20.7,19.3-28.6c8.3-7.9,18.1-13.9,29.4-18.1
					c11.4-4.2,23.8-6.3,37.2-6.3c13.5,0,25.9,2.1,37.2,6.3c11.4,4.2,21.2,10.3,29.4,18.1c8.3,7.9,14.7,17.4,19.3,28.6
					c4.6,11.2,6.9,23.7,6.9,37.5c0,13.8-2.3,26.3-6.9,37.5c-4.6,11.2-11.1,20.7-19.3,28.6c-8.3,7.9-18.1,13.9-29.4,18.1
					c-11.4,4.2-23.8,6.3-37.2,6.3c-13.5,0-25.9-2.1-37.2-6.3c-11.4-4.2-21.2-10.3-29.4-18.1c-8.3-7.9-14.7-17.4-19.3-28.6
					C356.1,307.8,353.7,295.3,353.7,281.5z M393.2,281.5c0,8.1,1.3,15.5,3.8,22.3c2.5,6.7,6.1,12.6,10.8,17.5
					c4.7,5,10.3,8.8,16.9,11.6c6.6,2.8,13.9,4.1,22,4.1c8.1,0,15.5-1.4,22-4.1c6.6-2.8,12.2-6.6,16.9-11.6
					c4.7-4.9,8.3-10.8,10.8-17.5c2.5-6.7,3.8-14.2,3.8-22.3c0-7.9-1.3-15.3-3.8-22.1c-2.5-6.8-6.1-12.7-10.8-17.6
					c-4.7-4.9-10.3-8.8-16.9-11.6c-6.6-2.8-13.9-4.1-22-4.1c-8.1,0-15.5,1.4-22,4.1c-6.6,2.8-12.2,6.6-16.9,11.6
					c-4.7,5-8.3,10.8-10.8,17.6C394.4,266.2,393.2,273.6,393.2,281.5z"/>
				<path d="M446.7,372.5c-13.5,0-26-2.1-37.4-6.4c-11.4-4.2-21.3-10.4-29.6-18.2c-8.3-7.9-14.8-17.6-19.5-28.8
					c-4.6-11.2-7-23.9-7-37.7c0-13.8,2.3-26.5,7-37.7s11.2-20.9,19.5-28.8c8.3-7.9,18.2-14,29.6-18.2c11.4-4.2,23.9-6.4,37.4-6.4
					c13.5,0,26,2.1,37.4,6.4c11.4,4.2,21.3,10.4,29.6,18.2c8.3,7.9,14.8,17.6,19.5,28.8c4.6,11.2,7,23.9,7,37.7s-2.3,26.5-7,37.7
					c-4.6,11.2-11.2,20.9-19.5,28.8c-8.3,7.9-18.2,14-29.6,18.2C472.7,370.4,460.2,372.5,446.7,372.5z M446.7,191.5
					c-13.3,0-25.8,2.1-37.1,6.3c-11.2,4.2-21.1,10.2-29.3,18c-8.2,7.8-14.7,17.3-19.2,28.4c-4.6,11.1-6.9,23.6-6.9,37.3
					s2.3,26.2,6.9,37.3c4.6,11.1,11,20.6,19.2,28.4c8.2,7.8,18,13.8,29.3,18c11.2,4.2,23.7,6.3,37.1,6.3c13.3,0,25.8-2.1,37.1-6.3
					c11.2-4.2,21.1-10.2,29.3-18c8.2-7.8,14.7-17.3,19.2-28.4c4.6-11.1,6.9-23.6,6.9-37.3s-2.3-26.2-6.9-37.3
					c-4.6-11.1-11-20.6-19.2-28.4c-8.2-7.8-18-13.8-29.3-18C472.5,193.6,460,191.5,446.7,191.5z M446.7,337.5
					c-8.1,0-15.6-1.4-22.2-4.2c-6.6-2.8-12.4-6.7-17.1-11.7c-4.7-5-8.4-10.9-10.9-17.7c-2.5-6.7-3.8-14.3-3.8-22.4
					c0-8,1.3-15.5,3.8-22.3c2.5-6.8,6.2-12.8,10.9-17.8c4.7-5,10.5-8.9,17.1-11.7c6.6-2.8,14.1-4.2,22.2-4.2
					c8.1,0,15.6,1.4,22.2,4.2c6.6,2.8,12.3,6.7,17.1,11.7c4.7,5,8.4,11,10.9,17.8c2.5,6.8,3.8,14.3,3.8,22.3
					c0,8.1-1.3,15.7-3.8,22.4c-2.5,6.8-6.2,12.7-10.9,17.7c-4.7,5-10.5,8.9-17.1,11.7C462.3,336.1,454.8,337.5,446.7,337.5z
					 M446.7,226.5c-8,0-15.3,1.4-21.8,4.1c-6.5,2.7-12.1,6.6-16.7,11.4c-4.6,4.9-8.2,10.8-10.7,17.5c-2.5,6.7-3.7,14.1-3.7,22
					c0,8,1.3,15.5,3.7,22.1c2.5,6.6,6.1,12.5,10.7,17.4c4.6,4.9,10.3,8.7,16.7,11.4c6.5,2.7,13.8,4.1,21.8,4.1
					c8,0,15.4-1.4,21.8-4.1c6.5-2.7,12.1-6.6,16.7-11.4c4.6-4.9,8.2-10.7,10.7-17.4c2.5-6.6,3.7-14.1,3.7-22.1
					c0-7.8-1.3-15.2-3.7-22c-2.5-6.7-6.1-12.6-10.7-17.5c-4.6-4.9-10.3-8.7-16.7-11.4C462,227.9,454.7,226.5,446.7,226.5z"/>
			</g>
			<g>
				<path d="M566.9,195.4h115.6v35h-77.6v35h71.8v35h-71.8v67.2h-38V195.4z"/>
				<path d="M605.4,368.1h-39V194.9H683v36h-77.6v34h71.8v36h-71.8V368.1z M567.4,367.1h37V300h71.8v-34h-71.8v-36H682v-34H567.4
					V367.1z"/>
			</g>
			<g>
				<path d="M709.2,195.4h38v172.3h-38V195.4z"/>
				<path d="M747.7,368.1h-39V194.9h39V368.1z M709.7,367.1h37V195.9h-37V367.1z"/>
			</g>
		</g>
		<g>
			<g>
				<path d="M59.4,565.1c4.6,5.8,8.5,9.3,11.7,11.7c10.6,7.4,25.5,11.5,41.8,11.5c28.7,0,46.9-12.4,46.9-31.8
					c0-16.5-12.4-25.4-45.9-32.7c-35.6-7.7-49.2-17.6-49.2-35.4c0-20,19.3-33.1,49.4-33.1c9.9,0,19.1,1.6,27.3,4.9
					c6.9,2.7,13.1,6.5,19.3,11l-4.6,3.6c-5.1-4.9-10.8-8.6-17.5-11.3c-7.4-3.1-15.6-4.5-24.8-4.5c-27.1,0-44.1,11.3-44.1,29.5
					c0,16.4,10.6,23.7,47.3,32.2c34.9,8.1,47.8,17.6,47.8,36c0,21.4-20.9,35.6-52.4,35.6c-17.9,0-33.3-4.3-44.8-12.4
					c-4.8-3.2-9-7.2-12.6-11.7L59.4,565.1z"/>
			</g>
			<g>
				<path d="M261.7,456.7c31.5,0,51.2,13.8,51.2,36c0,23.7-22.1,38.3-58.1,38.3h-41.6v46.2c0,4.5,0,9,0.7,13.5h-6.7
					c0.7-4.5,0.7-9,0.7-13.5V469.7c0-6.3-0.2-9.7-0.7-13.5c3.9,0.4,7.6,0.5,14,0.5H261.7z M254.8,527.2c33.5,0,52.8-12.2,52.8-34.3
					c0-20.1-18.1-32.4-47.1-32.4h-47.3v66.7H254.8z"/>
			</g>
			<g>
				<path d="M444.1,577.2c2.1,4.5,4.6,9,7.4,13.5h-7.4c-1.1-4.5-3.4-9-5.5-13.5l-19.1-39.9H346l-19.1,39.9c-2.1,4.5-4.1,9-5.5,13.5
					h-7.4c2.8-4.5,5.3-9,7.4-13.5l51.2-107c2.1-4.5,4.6-9,6-13.5h8.3c1.4,4.5,3.9,9,6,13.5L444.1,577.2z M417.4,533.5L382.8,461
					l-34.9,72.5H417.4z"/>
			</g>
			<g>
				<path d="M612.9,560.5c-3.4,4.7-7.4,9-11,12.4c-14.5,13.3-31.7,19.6-54.9,19.6c-48.7,0-78.3-26.4-78.3-69.6
					c0-40.6,29.9-68,74.4-68c22.3,0,39.3,4.7,52.1,14.6c6.2,4.7,11.3,10.4,16.1,17.3l-6,2.7c-3.7-7-8.3-12.8-14.2-17.4
					c-11.5-9-27.6-13.3-48.2-13.3c-41.6,0-68.9,25-68.9,64.2c0,41.4,27.3,65.8,73,65.8c21.1,0,36.8-5.4,51-18
					c3.4-3.2,6.7-7.2,10.6-12.6L612.9,560.5z"/>
			</g>
			<g>
				<path d="M733.7,586.9c5.7,0,11.5,0,17.2-0.5v4.9c-5.7-0.5-11.5-0.5-17.2-0.5h-65.2c-5.7,0-11.9,0-17.7,0.5
					c0.7-4.5,0.7-9,0.7-13.5V469.8c0-4.5,0-9-0.7-13.7c5.7,0.5,11.9,0.5,17.7,0.5h61.8c5.7,0,11.5,0,17.2-0.5v4.9
					c-5.7-0.5-11.5-0.5-17.2-0.5h-73.5v61.3h65.7c5.7,0,11.5,0,17.2-0.5v4.9c-5.7-0.5-11.5-0.5-17.2-0.5h-65.7v61.3H733.7z"/>
			</g>
		</g>
	</g>
</g>
</svg>
